<?xml version="1.0" encoding="UTF-8"?>
<svg width="60px" height="60px" viewBox="0 0 60 60" version="1.1" xmlns="http://www.w3.org/2000/svg" xmlns:xlink="http://www.w3.org/1999/xlink">
    <!-- Generator: Sketch 47.1 (45422) - http://www.bohemiancoding.com/sketch -->
    <title>democracy-icon</title>
    <desc>Created with Sketch.</desc>
    <defs></defs>
    <g id="Page-1" stroke="none" stroke-width="1" fill="none" fill-rule="evenodd">
        <g id="democracy-icon">
            <path d="M18,33 C16.3431458,33 15,31.6568542 15,30 C15,28.3431458 16.3431458,27 18,27 C19.6568542,27 21,28.3431458 21,30 C21,31.6568542 19.6568542,33 18,33 Z M42,33 C40.3431458,33 39,31.6568542 39,30 C39,28.3431458 40.3431458,27 42,27 C43.6568542,27 45,28.3431458 45,30 C45,31.6568542 43.6568542,33 42,33 Z M30,39 C28.3431458,39 27,37.6568542 27,36 C27,34.3431458 28.3431458,33 30,33 C31.6568542,33 33,34.3431458 33,36 C33,37.6568542 31.6568542,39 30,39 Z M42,21 C40.3431458,21 39,19.6568542 39,18 C39,16.3431458 40.3431458,15 42,15 C43.6568542,15 45,16.3431458 45,18 C45,19.6568542 43.6568542,21 42,21 Z M30,27 C28.3431458,27 27,25.6568542 27,24 C27,22.3431458 28.3431458,21 30,21 C31.6568542,21 33,22.3431458 33,24 C33,25.6568542 31.6568542,27 30,27 Z M30,15 C28.3431458,15 27,13.6568542 27,12 C27,10.3431458 28.3431458,9 30,9 C31.6568542,9 33,10.3431458 33,12 C33,13.6568542 31.6568542,15 30,15 Z M18,45 C16.3431458,45 15,43.6568542 15,42 C15,40.3431458 16.3431458,39 18,39 C19.6568542,39 21,40.3431458 21,42 C21,43.6568542 19.6568542,45 18,45 Z M30,51 C28.3431458,51 27,49.6568542 27,48 C27,46.3431458 28.3431458,45 30,45 C31.6568542,45 33,46.3431458 33,48 C33,49.6568542 31.6568542,51 30,51 Z" id="Combined-Shape" fill="#9F4D73"></path>
            <circle id="Oval-2-Copy-3" stroke="#9F4D73" stroke-width="4" cx="30" cy="30" r="28"></circle>
        </g>
    </g>
</svg>